<svg width="52" height="54" viewBox="0 0 52 54" fill="none" xmlns="http://www.w3.org/2000/svg">
<path d="M51.2375 24.0929C50.9961 24.302 50.7093 24.468 50.3937 24.5812C50.0781 24.6945 49.7398 24.7527 49.3981 24.7527C49.0565 24.7527 48.7182 24.6945 48.4025 24.5812C48.0869 24.468 47.8002 24.302 47.5588 24.0929L28.5995 7.68246V51.7501C28.5995 52.3468 28.3256 52.9191 27.8381 53.341C27.3505 53.763 26.6892 54 25.9997 54C25.3102 54 24.6489 53.763 24.1613 53.341C23.6738 52.9191 23.3999 52.3468 23.3999 51.7501V7.68246L4.44065 24.0929C3.95281 24.515 3.29117 24.7522 2.60127 24.7522C1.91137 24.7522 1.24973 24.515 0.761894 24.0929C0.274061 23.6707 5.14015e-09 23.0981 0 22.501C-5.14016e-09 21.904 0.274061 21.3314 0.761894 20.9092L24.1603 0.659873C24.4018 0.450683 24.6885 0.284731 25.0041 0.171505C25.3197 0.0582791 25.658 0 25.9997 0C26.3414 0 26.6797 0.0582791 26.9953 0.171505C27.3109 0.284731 27.5976 0.450683 27.8391 0.659873L51.2375 20.9092C51.4792 21.1182 51.671 21.3663 51.8018 21.6394C51.9327 21.9126 52 22.2054 52 22.501C52 22.7967 51.9327 23.0895 51.8018 23.3626C51.671 23.6358 51.4792 23.8839 51.2375 24.0929Z" fill="url(#paint0_linear_252_9)"/>
<defs>
<linearGradient id="paint0_linear_252_9" x1="26" y1="0" x2="26" y2="54" gradientUnits="userSpaceOnUse">
<stop stop-color="#7000FF"/>
<stop offset="1" stop-color="#6889FF"/>
</linearGradient>
</defs>
</svg>
