<svg width="61" height="61" viewBox="0 0 61 61" fill="none" xmlns="http://www.w3.org/2000/svg">
<path d="M30.5 0C24.4677 0 18.5708 1.78879 13.5551 5.14018C8.53942 8.49156 4.63016 13.255 2.32169 18.8281C0.0132152 24.4013 -0.590786 30.5338 0.586063 36.4502C1.76291 42.3667 4.66775 47.8012 8.93325 52.0667C13.1988 56.3322 18.6333 59.2371 24.5498 60.4139C30.4662 61.5908 36.5987 60.9868 42.1718 58.6783C47.745 56.3698 52.5084 52.4606 55.8598 47.4449C59.2112 42.4292 61 36.5323 61 30.5C60.9915 22.4135 57.7753 14.6607 52.0573 8.94267C46.3393 3.22466 38.5865 0.00853947 30.5 0ZM30.5 56.3077C25.3957 56.3077 20.4061 54.7941 16.162 51.9583C11.918 49.1225 8.61014 45.0919 6.65681 40.3762C4.70349 35.6604 4.19241 30.4714 5.18821 25.4652C6.184 20.459 8.64195 15.8605 12.2512 12.2512C15.8605 8.64193 20.459 6.18399 25.4652 5.18819C30.4714 4.1924 35.6604 4.70348 40.3762 6.6568C45.0919 8.61012 49.1225 11.918 51.9583 16.162C54.7941 20.4061 56.3077 25.3957 56.3077 30.5C56.2999 37.3422 53.5784 43.902 48.7402 48.7402C43.902 53.5784 37.3422 56.2999 30.5 56.3077ZM41.5445 31.1862C41.7627 31.4041 41.9357 31.6629 42.0538 31.9477C42.1718 32.2325 42.2326 32.5378 42.2326 32.8461C42.2326 33.1545 42.1718 33.4598 42.0538 33.7446C41.9357 34.0294 41.7627 34.2882 41.5445 34.5061L32.1599 43.8907C31.942 44.1088 31.6833 44.2819 31.3984 44.3999C31.1136 44.518 30.8083 44.5788 30.5 44.5788C30.1917 44.5788 29.8864 44.518 29.6016 44.3999C29.3168 44.2819 29.058 44.1088 28.8401 43.8907L19.4555 34.5061C19.0153 34.0658 18.7679 33.4687 18.7679 32.8461C18.7679 32.2236 19.0153 31.6265 19.4555 31.1862C19.8957 30.746 20.4928 30.4987 21.1154 30.4987C21.738 30.4987 22.3351 30.746 22.7753 31.1862L28.1539 36.5677V18.7692C28.1539 18.147 28.401 17.5502 28.841 17.1102C29.281 16.6703 29.8778 16.4231 30.5 16.4231C31.1222 16.4231 31.719 16.6703 32.159 17.1102C32.599 17.5502 32.8462 18.147 32.8462 18.7692V36.5677L38.2247 31.1862C38.4426 30.9681 38.7014 30.7951 38.9862 30.677C39.271 30.5589 39.5763 30.4981 39.8846 30.4981C40.1929 30.4981 40.4982 30.5589 40.7831 30.677C41.0679 30.7951 41.3266 30.9681 41.5445 31.1862Z" fill="url(#paint0_linear_16_52)"/>
<defs>
<linearGradient id="paint0_linear_16_52" x1="30.5" y1="0" x2="30.5" y2="61" gradientUnits="userSpaceOnUse">
<stop stop-color="#6889FF"/>
<stop offset="1" stop-color="#7000FF"/>
</linearGradient>
</defs>
</svg>
