<svg width="60" height="66" viewBox="0 0 60 66" fill="none" xmlns="http://www.w3.org/2000/svg">
<path d="M55 5.07692H47.5V2.53846C47.5 1.86522 47.2366 1.21955 46.7678 0.743498C46.2989 0.267444 45.663 0 45 0C44.337 0 43.7011 0.267444 43.2322 0.743498C42.7634 1.21955 42.5 1.86522 42.5 2.53846V5.07692H17.5V2.53846C17.5 1.86522 17.2366 1.21955 16.7678 0.743498C16.2989 0.267444 15.663 0 15 0C14.337 0 13.7011 0.267444 13.2322 0.743498C12.7634 1.21955 12.5 1.86522 12.5 2.53846V5.07692H5C3.67392 5.07692 2.40215 5.61181 1.46447 6.56392C0.526784 7.51603 0 8.80736 0 10.1538V60.9231C0 62.2696 0.526784 63.5609 1.46447 64.513C2.40215 65.4651 3.67392 66 5 66H55C56.3261 66 57.5978 65.4651 58.5355 64.513C59.4732 63.5609 60 62.2696 60 60.9231V10.1538C60 8.80736 59.4732 7.51603 58.5355 6.56392C57.5978 5.61181 56.3261 5.07692 55 5.07692ZM12.5 10.1538V12.6923C12.5 13.3656 12.7634 14.0112 13.2322 14.4873C13.7011 14.9633 14.337 15.2308 15 15.2308C15.663 15.2308 16.2989 14.9633 16.7678 14.4873C17.2366 14.0112 17.5 13.3656 17.5 12.6923V10.1538H42.5V12.6923C42.5 13.3656 42.7634 14.0112 43.2322 14.4873C43.7011 14.9633 44.337 15.2308 45 15.2308C45.663 15.2308 46.2989 14.9633 46.7678 14.4873C47.2366 14.0112 47.5 13.3656 47.5 12.6923V10.1538H55V20.3077H5V10.1538H12.5ZM55 60.9231H5V25.3846H55V60.9231Z" fill="url(#paint0_linear_17_65)"/>
<defs>
<linearGradient id="paint0_linear_17_65" x1="9.19355" y1="5.0826e-08" x2="53.8893" y2="65.8782" gradientUnits="userSpaceOnUse">
<stop stop-color="#7000FF"/>
<stop offset="0.649038" stop-color="#0469FF"/>
<stop offset="1" stop-color="#6889FF"/>
</linearGradient>
</defs>
</svg>
