<svg width="66" height="67" viewBox="0 0 66 67" fill="none" xmlns="http://www.w3.org/2000/svg">
<path d="M33 0.5C26.4732 0.5 20.093 2.43542 14.6662 6.0615C9.23937 9.68759 5.00968 14.8415 2.51199 20.8714C0.0142982 26.9014 -0.639212 33.5366 0.6341 39.938C1.90741 46.3393 5.05036 52.2194 9.66549 56.8345C14.2806 61.4496 20.1607 64.5926 26.562 65.8659C32.9634 67.1392 39.5986 66.4857 45.6286 63.988C51.6585 61.4903 56.8124 57.2606 60.4385 51.8338C64.0646 46.407 66 40.0268 66 33.5C65.9908 24.7507 62.511 16.3624 56.3243 10.1757C50.1376 3.98898 41.7493 0.509239 33 0.5ZM33 61.4231C27.4773 61.4231 22.0787 59.7854 17.4868 56.7172C12.8949 53.649 9.31588 49.288 7.20245 44.1857C5.08902 39.0834 4.53605 33.469 5.61347 28.0525C6.69089 22.6359 9.3503 17.6605 13.2554 13.7554C17.1605 9.85029 22.1359 7.19087 27.5525 6.11346C32.969 5.03604 38.5834 5.58901 43.6857 7.70244C48.788 9.81587 53.149 13.3948 56.2172 17.9868C59.2854 22.5787 60.9231 27.9773 60.9231 33.5C60.9147 40.9031 57.9701 48.0005 52.7353 53.2353C47.5006 58.4701 40.4031 61.4147 33 61.4231ZM53.3077 33.5C53.3077 34.1732 53.0403 34.8189 52.5642 35.295C52.0881 35.771 51.4425 36.0385 50.7692 36.0385H33C32.3268 36.0385 31.6811 35.771 31.205 35.295C30.729 34.8189 30.4615 34.1732 30.4615 33.5V15.7308C30.4615 15.0575 30.729 14.4119 31.205 13.9358C31.6811 13.4598 32.3268 13.1923 33 13.1923C33.6732 13.1923 34.3189 13.4598 34.795 13.9358C35.271 14.4119 35.5385 15.0575 35.5385 15.7308V30.9615H50.7692C51.4425 30.9615 52.0881 31.229 52.5642 31.705C53.0403 32.1811 53.3077 32.8268 53.3077 33.5Z" fill="url(#paint0_linear_17_67)"/>
<defs>
<linearGradient id="paint0_linear_17_67" x1="13.5" y1="0.499999" x2="57" y2="66.5" gradientUnits="userSpaceOnUse">
<stop stop-color="#7000FF"/>
<stop offset="0.663462" stop-color="#0469FF"/>
<stop offset="1" stop-color="#6889FF"/>
</linearGradient>
</defs>
</svg>
