<svg width="68" height="66" viewBox="0 0 68 66" fill="none" xmlns="http://www.w3.org/2000/svg">
<path d="M67.8551 11.9102C67.7055 11.2846 67.4339 10.6951 67.0561 10.176C66.6783 9.65686 66.2018 9.21839 65.6543 8.88602C56.1049 3.07296 45.157 0 33.9963 0C22.8356 0 11.8877 3.07296 2.33829 8.88602C1.79236 9.2192 1.31707 9.65743 0.93961 10.1756C0.562151 10.6938 0.289932 11.2819 0.138528 11.906C-0.0128759 12.5302 -0.0404933 13.1783 0.0572552 13.8133C0.155004 14.4482 0.3762 15.0575 0.708189 15.6063L29.8497 63.6473C30.2826 64.3655 30.8922 64.9593 31.6196 65.3714C32.347 65.7835 33.1676 66 34.0024 66C34.8371 66 35.6578 65.7835 36.3852 65.3714C37.1126 64.9593 37.7221 64.3655 38.155 63.6473L67.2966 15.6063C67.6289 15.0584 67.8495 14.4494 67.9454 13.8148C68.0413 13.1802 68.0106 12.5327 67.8551 11.9102ZM14.4442 28.8636C15.2332 28.1153 16.1783 27.5537 17.2105 27.2197C18.2427 26.8857 19.336 26.7877 20.4106 26.933C21.4852 27.0782 22.514 27.463 23.422 28.0592C24.3301 28.6555 25.0944 29.4481 25.6593 30.3794C26.2242 31.3107 26.5754 32.3572 26.6873 33.4424C26.7991 34.5277 26.6689 35.6244 26.306 36.6525C25.9432 37.6807 25.3568 38.6144 24.5898 39.3855C23.8227 40.1566 22.8943 40.7457 21.8722 41.1099L14.4442 28.8636ZM41.1329 49.3147C39.9168 48.1608 39.132 46.6211 38.9101 44.954C38.6883 43.2868 39.0428 41.5936 39.9143 40.1583C40.7859 38.723 42.1213 37.633 43.6968 37.0709C45.2722 36.5089 46.9918 36.5091 48.5671 37.0716L41.1329 49.3147ZM51.1291 32.8408C48.4299 31.608 45.3757 31.4113 42.5424 32.2879C39.709 33.1644 37.2921 35.0537 35.7474 37.5996C34.2026 40.1454 33.6367 43.172 34.1562 46.1087C34.6758 49.0454 36.2449 51.6895 38.5679 53.5424L33.9963 61.0905L24.4342 45.3375C26.0041 44.6257 27.4056 43.5859 28.5456 42.2874C29.6856 40.9888 30.5382 39.4611 31.0466 37.8056C31.555 36.1502 31.7078 34.4048 31.4947 32.6854C31.2816 30.966 30.7075 29.3118 29.8105 27.8328C28.9136 26.3537 27.7143 25.0835 26.2922 24.1065C24.8701 23.1295 23.2578 22.468 21.5623 22.166C19.8668 21.8639 18.1268 21.9282 16.4579 22.3546C14.7889 22.781 13.2292 23.5597 11.8821 24.639L9.95455 21.4591C17.1945 17.0119 25.5126 14.659 33.9948 14.659C42.477 14.659 50.7951 17.0119 58.035 21.4591L51.1291 32.8408ZM60.5697 17.2833C52.5657 12.3709 43.3716 9.77211 33.9963 9.77211C24.621 9.77211 15.4269 12.3709 7.42288 17.2833L4.85478 13.0618C13.6465 7.71489 23.7237 4.88861 33.9963 4.88861C44.2689 4.88861 54.3461 7.71489 63.1378 13.0618L60.5697 17.2833Z" fill="url(#paint0_linear_17_75)"/>
<defs>
<linearGradient id="paint0_linear_17_75" x1="19.5" y1="-3.27467e-07" x2="49.5" y2="66" gradientUnits="userSpaceOnUse">
<stop offset="0.125" stop-color="#7000FF"/>
<stop offset="0.677885" stop-color="#0469FF"/>
<stop offset="1" stop-color="#6889FF"/>
</linearGradient>
</defs>
</svg>
