<svg width="52" height="66" viewBox="0 0 52 66" fill="none" xmlns="http://www.w3.org/2000/svg">
<path d="M40.1818 63.6431C40.1818 64.2682 39.9328 64.8677 39.4896 65.3097C39.0463 65.7517 38.4451 66 37.8182 66H14.1821C13.5552 66 12.954 65.7517 12.5107 65.3097C12.0675 64.8677 11.8185 64.2682 11.8185 63.6431C11.8185 63.018 12.0675 62.4186 12.5107 61.9766C12.954 61.5346 13.5552 61.2862 14.1821 61.2862H37.8182C38.4451 61.2862 39.0463 61.5346 39.4896 61.9766C39.9328 62.4186 40.1818 63.018 40.1818 63.6431ZM51.9999 25.9331C52.0101 29.8622 51.12 33.7416 49.3975 37.2753C47.675 40.8091 45.1656 43.9037 42.0609 46.323C41.4804 46.7668 41.0093 47.3369 40.6836 47.99C40.3579 48.6431 40.1863 49.3618 40.1818 50.0911V51.8588C40.1818 53.1089 39.6838 54.3079 38.7973 55.1919C37.9107 56.0759 36.7083 56.5725 35.4546 56.5725H16.5457C15.292 56.5725 14.0896 56.0759 13.203 55.1919C12.3165 54.3079 11.8185 53.1089 11.8185 51.8588V50.0911C11.818 49.3705 11.6518 48.6595 11.3327 48.013C11.0136 47.3664 10.5501 46.8014 9.97779 46.3613C6.88087 43.9563 4.37321 40.8803 2.64462 37.3661C0.916024 33.8519 0.0117997 29.9916 0.000386597 26.0775C-0.0764309 12.0364 11.3044 0.343379 25.3738 0.00752487C28.8405 -0.0757768 32.2888 0.533265 35.5159 1.7988C38.743 3.06434 41.6836 4.9608 44.1647 7.37656C46.6457 9.79232 48.617 12.6786 49.9626 15.8654C51.3082 19.0523 52.0009 22.4753 51.9999 25.9331ZM47.2727 25.9331C47.2735 23.1039 46.7067 20.3031 45.6057 17.6955C44.5046 15.088 42.8916 12.7264 40.8615 10.7499C38.8313 8.77334 36.4252 7.22173 33.7847 6.18639C31.1441 5.15104 28.3226 4.6529 25.4861 4.72127C13.9634 4.99231 4.66557 14.5583 4.72762 26.048C4.73841 29.2492 5.47923 32.406 6.89403 35.2796C8.30882 38.1532 10.3605 40.6683 12.8939 42.6345C14.0327 43.5173 14.9538 44.6482 15.5868 45.9406C16.2198 47.2331 16.5478 48.6528 16.5457 50.0911V51.8588H35.4546V50.0911C35.4579 48.6487 35.7915 47.2261 36.43 45.9318C37.0685 44.6375 37.995 43.5057 39.1389 42.6228C41.6801 40.6425 43.7339 38.1094 45.1436 35.2169C46.5532 32.3245 47.2815 29.1491 47.2727 25.9331ZM42.513 23.1815C41.9001 19.7678 40.253 16.6234 37.7935 14.1714C35.3341 11.7195 32.1803 10.0778 28.7567 9.46743C28.4506 9.41597 28.1373 9.42514 27.8347 9.49442C27.5322 9.5637 27.2462 9.69172 26.9933 9.87118C26.7403 10.0506 26.5253 10.278 26.3605 10.5404C26.1956 10.8027 26.0843 11.0948 26.0326 11.4001C25.981 11.7053 25.9902 12.0177 26.0597 12.3194C26.1292 12.6211 26.2576 12.9062 26.4376 13.1585C26.6175 13.4107 26.8456 13.6251 27.1086 13.7895C27.3717 13.9538 27.6647 14.0649 27.9708 14.1164C32.8665 14.9383 37.0205 19.0805 37.8507 23.971C37.9443 24.52 38.2297 25.0181 38.6563 25.3773C39.083 25.7364 39.6235 25.9333 40.1818 25.9331C40.3154 25.9323 40.4488 25.9215 40.5807 25.9007C41.1985 25.7956 41.7491 25.45 42.1115 24.9401C42.4739 24.4301 42.6183 23.7976 42.513 23.1815Z" fill="url(#paint0_linear_17_73)"/>
<defs>
<linearGradient id="paint0_linear_17_73" x1="18.5" y1="5.7307e-07" x2="39.5" y2="59" gradientUnits="userSpaceOnUse">
<stop offset="0.125" stop-color="#7000FF"/>
<stop offset="0.677885" stop-color="#0469FF"/>
<stop offset="1" stop-color="#6889FF"/>
</linearGradient>
</defs>
</svg>
