<svg width="52" height="67" viewBox="0 0 52 67" fill="none" xmlns="http://www.w3.org/2000/svg">
<path d="M26 14.643C23.6626 14.643 21.3777 15.3342 19.4342 16.6293C17.4907 17.9243 15.9759 19.765 15.0814 21.9186C14.1869 24.0722 13.9529 26.4419 14.4089 28.7281C14.8649 31.0144 15.9905 33.1144 17.6433 34.7627C19.2961 36.411 21.4019 37.5334 23.6944 37.9882C25.9869 38.443 28.3631 38.2096 30.5226 37.3175C32.6821 36.4255 34.5279 34.9149 35.8265 32.9767C37.1251 31.0385 37.8182 28.7598 37.8182 26.4288C37.8182 23.303 36.5731 20.3053 34.3567 18.095C32.1404 15.8847 29.1344 14.643 26 14.643ZM26 33.5003C24.5975 33.5003 23.2266 33.0856 22.0605 32.3086C20.8944 31.5315 19.9855 30.4271 19.4489 29.135C18.9122 27.8428 18.7717 26.421 19.0453 25.0493C19.3189 23.6775 19.9943 22.4175 20.986 21.4285C21.9776 20.4396 23.2411 19.7661 24.6166 19.4932C25.9921 19.2204 27.4179 19.3604 28.7136 19.8956C30.0093 20.4308 31.1167 21.3372 31.8959 22.5001C32.675 23.663 33.0909 25.0302 33.0909 26.4288C33.0909 28.3043 32.3438 30.103 31.014 31.4291C29.6842 32.7553 27.8806 33.5003 26 33.5003ZM26 0.5C19.1068 0.507798 12.4981 3.24208 7.62386 8.10299C2.74961 12.9639 0.00781989 19.5545 0 26.4288C0 35.6807 4.28705 45.4865 12.4091 54.7885C16.0586 58.9918 20.1661 62.7768 24.6557 66.0734C25.0531 66.3511 25.5266 66.5 26.0118 66.5C26.4971 66.5 26.9705 66.3511 27.368 66.0734C31.8493 62.7754 35.9488 58.9905 39.5909 54.7885C47.7011 45.4865 52 35.6807 52 26.4288C51.9922 19.5545 49.2504 12.9639 44.3761 8.10299C39.5019 3.24208 32.8932 0.507798 26 0.5ZM26 61.197C21.1161 57.3666 4.72727 43.2973 4.72727 26.4288C4.72727 20.8024 6.9685 15.4064 10.9579 11.4279C14.9473 7.44943 20.3581 5.21433 26 5.21433C31.6419 5.21433 37.0527 7.44943 41.0421 11.4279C45.0315 15.4064 47.2727 20.8024 47.2727 26.4288C47.2727 43.2914 30.8839 57.3666 26 61.197Z" fill="url(#paint0_linear_17_69)"/>
<defs>
<linearGradient id="paint0_linear_17_69" x1="14" y1="0.5" x2="39.5" y2="66.5" gradientUnits="userSpaceOnUse">
<stop offset="0.125" stop-color="#7000FF"/>
<stop offset="0.677885" stop-color="#0469FF"/>
<stop offset="1" stop-color="#6889FF"/>
</linearGradient>
</defs>
</svg>
