<svg width="104" height="66" viewBox="0 0 104 66" fill="none" xmlns="http://www.w3.org/2000/svg">
<path d="M47.6122 45.318C52.0016 42.3757 55.334 38.0893 57.1167 33.0926C58.8995 28.0959 59.0379 22.6542 57.5114 17.5722C55.985 12.4902 52.8748 8.03773 48.6407 4.87317C44.4066 1.70861 39.2735 0 34.0004 0C28.7273 0 23.5942 1.70861 19.3601 4.87317C15.1261 8.03773 12.0158 12.4902 10.4894 17.5722C8.96296 22.6542 9.10134 28.0959 10.8841 33.0926C12.6668 38.0893 15.9992 42.3757 20.3886 45.318C12.4487 48.2645 5.66781 53.7169 1.05779 60.8617C0.815501 61.2243 0.647208 61.6317 0.562692 62.0604C0.478176 62.489 0.479122 62.9303 0.565476 63.3585C0.65183 63.7868 0.821868 64.1935 1.06571 64.5551C1.30955 64.9166 1.62232 65.2257 1.98586 65.4644C2.34939 65.7032 2.75643 65.8668 3.18331 65.9457C3.61019 66.0247 4.0484 66.0174 4.47247 65.9244C4.89654 65.8313 5.29801 65.6543 5.65354 65.4036C6.00907 65.153 6.31156 64.8336 6.54345 64.4642C9.51713 59.8592 13.5862 56.075 18.3812 53.4554C23.1761 50.8357 28.5451 49.4636 34.0004 49.4636C39.4558 49.4636 44.8247 50.8357 49.6197 53.4554C54.4146 56.075 58.4837 59.8592 61.4574 64.4642C61.9377 65.1831 62.6797 65.6827 63.523 65.855C64.3663 66.0274 65.243 65.8587 65.9638 65.3854C66.6845 64.9121 67.1912 64.1722 67.3745 63.3257C67.5577 62.4792 67.4028 61.5941 66.943 60.8617C62.333 53.7169 55.5521 48.2645 47.6122 45.318ZM15.9878 24.7415C15.9878 21.1544 17.0442 17.6479 19.0235 14.6654C21.0027 11.6829 23.8159 9.35833 27.1073 7.98563C30.3987 6.61293 34.0204 6.25377 37.5145 6.95357C41.0086 7.65336 44.2181 9.38068 46.7373 11.9171C49.2564 14.4535 50.9719 17.6851 51.6669 21.2032C52.3619 24.7213 52.0052 28.368 50.6419 31.6819C49.2786 34.9959 46.9698 37.8284 44.0077 39.8213C41.0455 41.8141 37.563 42.8778 34.0004 42.8778C29.2248 42.8724 24.6464 40.9598 21.2695 37.5598C17.8927 34.1597 15.9932 29.5498 15.9878 24.7415ZM102.014 65.4246C101.287 65.9023 100.401 66.0694 99.551 65.8893C98.7011 65.7092 97.9571 65.1966 97.4826 64.4642C94.5125 59.8564 90.4439 56.0706 85.648 53.4521C80.8521 50.8335 75.4813 49.4655 70.0256 49.4729C69.1571 49.4729 68.324 49.1255 67.7098 48.507C67.0957 47.8886 66.7506 47.0499 66.7506 46.1753C66.7506 45.3008 67.0957 44.462 67.7098 43.8436C68.324 43.2252 69.1571 42.8778 70.0256 42.8778C72.6783 42.8753 75.2976 42.2829 77.6965 41.143C80.0954 40.003 82.2147 38.3437 83.9028 36.2835C85.591 34.2233 86.8064 31.8131 87.4621 29.2252C88.1179 26.6372 88.1979 23.9353 87.6964 21.3126C87.1949 18.6899 86.1243 16.2111 84.5611 14.0533C82.9978 11.8955 80.9805 10.112 78.6533 8.83022C76.3261 7.54841 73.7465 6.79995 71.0987 6.63833C68.4509 6.4767 65.8004 6.90589 63.3364 7.89523C62.9347 8.0701 62.5022 8.16211 62.0645 8.16583C61.6269 8.16956 61.1929 8.08492 60.7883 7.91692C60.3837 7.74892 60.0166 7.50096 59.7088 7.18771C59.401 6.87445 59.1586 6.50225 58.9961 6.0931C58.8335 5.68394 58.7541 5.24613 58.7624 4.80553C58.7708 4.36494 58.8668 3.9305 59.0447 3.52788C59.2226 3.12526 59.4789 2.76264 59.7984 2.46143C60.1178 2.16023 60.494 1.92655 60.9047 1.77421C66.5437 -0.490154 72.8158 -0.571639 78.511 1.54547C84.2061 3.66258 88.9209 7.82828 91.7456 13.2389C94.5703 18.6496 95.3049 24.9218 93.8076 30.8456C92.3103 36.7695 88.6873 41.9251 83.6375 45.318C91.5774 48.2645 98.3582 53.7169 102.968 60.8617C103.443 61.5942 103.609 62.4863 103.43 63.342C103.251 64.1977 102.742 64.9468 102.014 65.4246Z" fill="url(#paint0_linear_17_71)"/>
<defs>
<linearGradient id="paint0_linear_17_71" x1="24" y1="3.1249e-07" x2="73.5" y2="66" gradientUnits="userSpaceOnUse">
<stop offset="0.125" stop-color="#7000FF"/>
<stop offset="0.677885" stop-color="#0469FF"/>
<stop offset="1" stop-color="#6889FF"/>
</linearGradient>
</defs>
</svg>
