<svg width="32" height="32" viewBox="0 0 32 32" fill="none" xmlns="http://www.w3.org/2000/svg">
<path d="M14.1243 29.931C14.7686 31.6722 17.2314 31.6722 17.8757 29.931L20.8126 21.9942C21.0151 21.4468 21.4468 21.0151 21.9942 20.8126L29.931 17.8757C31.6722 17.2314 31.6722 14.7686 29.931 14.1243L21.9942 11.1874C21.4468 10.9849 21.0151 10.5532 20.8126 10.0058L17.8757 2.06901C17.2314 0.32777 14.7686 0.327774 14.1243 2.06901L11.1874 10.0058C10.9849 10.5532 10.5532 10.9849 10.0058 11.1874L2.06901 14.1243C0.327771 14.7686 0.327776 17.2314 2.06901 17.8757L10.0058 20.8126C10.5532 21.0151 10.9849 21.4468 11.1874 21.9942L14.1243 29.931Z" fill="url(#paint0_linear_158_26)"/>
<defs>
<linearGradient id="paint0_linear_158_26" x1="8.05455" y1="35" x2="28.2636" y2="-3" gradientUnits="userSpaceOnUse">
<stop stop-color="#6889FF"/>
<stop offset="0.5" stop-color="#7000FF" stop-opacity="0.45"/>
<stop offset="1" stop-opacity="0.7"/>
</linearGradient>
</defs>
</svg>
